<svg width="158" height="40" viewBox="0 0 158 40" fill="none" xmlns="http://www.w3.org/2000/svg">
<path d="M55.9444 20.9936V21.5349H49.3668V20.9936C49.9771 20.9936 50.4517 20.9259 50.6552 20.7906C50.8586 20.6552 50.9942 20.5199 50.9942 20.1815C50.9942 19.9108 50.8586 19.5048 50.6552 18.8281C50.5195 18.6251 50.3839 18.0837 50.1127 17.407H45.5015C45.2303 18.0837 45.0268 18.6251 44.8912 19.1664C44.6878 19.6401 44.6878 19.9785 44.6878 20.0462C44.6878 20.3169 44.8234 20.5875 45.0268 20.6552C45.2303 20.8582 45.705 20.8582 46.3153 20.8582V21.3996H42.2466V20.8582C42.7891 20.7906 43.1281 20.5875 43.4672 20.1815C43.6706 19.9785 43.9419 19.3695 44.2809 18.4897L48.8243 7.39161H49.3668L53.9101 18.016C54.4526 19.1664 54.7916 19.9108 54.9951 20.2492C55.1985 20.7906 55.6054 20.9259 55.9444 20.9936ZM45.7728 16.6626H49.7736L47.7393 11.7226L45.7728 16.6626ZM57.0972 21.5349V20.9936C57.7753 20.9259 58.25 20.7906 58.4534 20.6552C58.7247 20.4522 58.9281 19.9785 58.9281 19.4371V9.76011C58.5891 9.28641 58.25 8.94805 57.9788 8.67737C57.7075 8.40668 57.4363 8.27134 57.2328 8.27134V7.72997H61.5049L68.5573 16.3919L68.6251 10.3015C68.6251 9.62477 68.4895 9.0834 68.2861 8.81271C68.0148 8.40668 67.4723 8.27134 66.7264 8.27134V7.79764H71.0663V8.33901C70.3882 8.47435 69.9135 8.54202 69.7779 8.81271C69.6423 9.0834 69.5067 9.42175 69.5067 9.96312V21.941H68.9642L59.8775 10.9105L59.8097 19.0311C59.8097 19.7755 59.9453 20.2492 60.2165 20.5199C60.4878 20.7906 61.0303 20.9936 61.7762 21.0612V21.6026C61.7084 21.535 57.0972 21.5349 57.0972 21.5349ZM89.85 18.3544L90.4603 18.8958C89.5788 19.8432 88.8328 20.5875 88.0191 21.0612C87.0698 21.6026 85.9848 21.941 84.7642 21.941C82.5264 21.941 80.6955 21.1966 79.4071 19.7755C78.1865 18.4897 77.5084 16.7979 77.5084 14.7678C77.5084 12.67 78.1865 10.9782 79.4749 9.5571C80.8311 8.13599 82.5264 7.45928 84.6286 7.45928C85.2389 7.45928 85.8492 7.59462 86.5273 7.72997C87.2054 7.93298 87.8835 8.20367 88.4938 8.40668C88.765 8.40668 88.9685 8.27134 89.1041 8.13599C89.1719 8.00065 89.3075 7.86531 89.4431 7.52695H89.9856V12.3316H89.511C89.1041 11.2489 88.5616 10.3692 87.7479 9.62477C86.8663 8.74504 85.8492 8.20367 84.832 8.20367C83.4758 8.20367 82.4586 8.88038 81.8483 10.1661C81.3058 11.2489 81.0346 12.7377 81.0346 14.7001C81.0346 15.5799 81.1024 16.2566 81.238 16.9333C81.4414 17.813 81.6449 18.5574 81.9839 19.1664C82.2552 19.6401 82.662 20.0462 83.2045 20.3845C83.8148 20.7906 84.4251 20.9259 85.1032 20.9259C85.9848 20.9259 86.7307 20.7229 87.4766 20.3845C88.1547 19.9785 88.9685 19.3018 89.85 18.3544ZM104.158 8.00065C104.226 8.00065 104.294 7.93298 104.362 7.93298C104.429 7.93298 104.497 7.86531 104.565 7.72997L104.836 7.45928C104.565 7.32394 104.294 7.12092 104.09 6.91791C103.887 6.64722 103.819 6.37654 103.819 6.03818C103.819 5.56448 104.023 5.22612 104.294 4.88776C104.565 4.61708 104.972 4.41406 105.379 4.41406C105.786 4.41406 106.125 4.61708 106.464 4.88776C106.735 5.15845 106.938 5.56448 106.938 6.03818C106.938 6.17352 106.871 6.30886 106.803 6.57955C106.735 6.78256 106.599 6.98558 106.599 7.12092C106.464 7.32394 106.396 7.39161 106.26 7.59462C106.057 7.79764 105.853 7.93298 105.65 8.06832C105.379 8.27134 105.108 8.33901 104.904 8.54202C104.701 8.74504 104.362 8.81271 104.158 8.88038V16.5273C104.158 17.2716 104.09 17.9484 103.955 18.5574C103.751 19.3695 103.412 19.9785 103.073 20.4522C102.599 20.9936 101.988 21.3319 101.174 21.6026C100.496 21.8056 99.8183 21.941 99.0723 21.941C98.3942 21.941 97.7839 21.8733 97.1736 21.738C96.2921 21.5349 95.5461 21.1966 94.9358 20.6552C94.3934 20.1815 94.0543 19.7755 93.9187 19.3695C93.6474 18.8281 93.5118 18.016 93.5118 17.001V10.3015C93.5118 9.48942 93.3762 9.0834 93.1049 8.74504C92.9015 8.54202 92.4946 8.47435 91.8843 8.40668V7.86531H98.7333V8.40668C97.9874 8.40668 97.5127 8.54202 97.2414 8.67737C96.9702 8.88038 96.7667 9.42175 96.7667 10.2338V17.001C96.7667 18.4221 96.9702 19.3695 97.5127 19.9785C97.9874 20.5875 98.7333 20.9259 99.7504 20.9259C101.31 20.9259 102.327 20.3845 102.938 19.2341C103.209 18.6251 103.412 17.6777 103.412 16.5949V10.4368C103.412 9.69244 103.277 9.21874 103.073 8.94805C102.802 8.60969 102.192 8.40668 101.446 8.40668V7.86531H104.362L104.158 8.00065ZM117.314 8.81271C117.517 8.74504 117.653 8.67737 117.788 8.67737C118.059 8.54202 118.263 8.47435 118.331 8.47435L118.602 8.20367C118.331 8.06832 118.059 7.86531 117.856 7.66229C117.653 7.39161 117.585 7.12092 117.585 6.78256C117.585 6.30886 117.788 5.97051 118.059 5.63215C118.331 5.36146 118.738 5.15845 119.144 5.15845C119.551 5.15845 119.89 5.36146 120.229 5.63215C120.501 5.90284 120.704 6.30886 120.704 6.78256C120.704 6.91791 120.636 7.05325 120.568 7.32394C120.501 7.52695 120.365 7.72997 120.365 7.86531C120.229 8.06832 120.162 8.13599 120.026 8.33901C119.823 8.54202 119.687 8.60969 119.483 8.81271C119.28 8.94805 119.077 9.01572 118.873 9.15107C118.738 9.21874 118.466 9.35408 117.924 9.5571C118.534 10.1661 119.077 10.9782 119.483 11.8579C119.89 12.7377 120.026 13.7527 120.026 14.8355C120.026 16.9333 119.416 18.6927 118.127 20.0462C116.839 21.3996 115.279 22.0763 113.38 22.0763C111.482 22.0763 109.854 21.3996 108.634 20.0462C107.413 18.6927 106.735 17.001 106.735 14.8355C106.735 12.67 107.345 10.9105 108.634 9.5571C109.854 8.27134 111.414 7.66229 113.313 7.66229C114.059 7.66229 114.737 7.79764 115.415 8.00065C116.093 8.00065 116.771 8.33901 117.314 8.81271ZM113.313 8.20367C112.092 8.20367 111.278 8.94805 110.668 10.3692C110.193 11.5196 109.99 12.9407 109.99 14.7001C109.99 16.9333 110.261 18.4897 110.871 19.5725C111.482 20.6552 112.296 21.1966 113.38 21.1966C114.465 21.1966 115.279 20.6552 115.822 19.5725C116.364 18.4897 116.703 16.8656 116.703 14.7001C116.703 12.873 116.5 11.4519 116.093 10.3692C115.415 8.94805 114.533 8.20367 113.313 8.20367Z" fill="white"/>
<path d="M115.076 6.57787H113.923L111.007 4.81841C110.736 4.61539 110.532 4.48005 110.397 4.27704C110.261 4.07402 110.193 3.93868 110.193 3.73566C110.193 3.46498 110.329 3.19429 110.464 3.12662C110.668 2.92361 110.939 2.92361 111.21 2.92361C111.414 2.92361 111.617 2.99128 111.753 3.12662C111.889 3.19429 112.024 3.32964 112.228 3.53265L115.076 6.57787ZM121.857 21.5333V20.9919C122.535 20.9242 123.01 20.7889 123.213 20.6535C123.484 20.4505 123.688 19.9768 123.688 19.4354V9.75843C123.349 9.28473 123.01 8.94637 122.738 8.67568C122.467 8.405 122.196 8.26965 121.992 8.26965V7.72828H126.264L133.317 16.3902L133.385 10.2998C133.385 9.62308 133.249 9.08171 133.046 8.81103C132.774 8.405 132.232 8.26965 131.486 8.26965V7.79595H135.826V8.33733C135.148 8.47267 134.673 8.54034 134.537 8.81103C134.334 9.01404 134.266 9.42007 134.266 9.96144V21.9393H133.724L124.637 10.9765L124.569 19.0971C124.569 19.8415 124.705 20.3152 124.976 20.5859C125.247 20.8565 125.79 21.0596 126.536 21.1272V21.6686C126.468 21.5333 121.857 21.5333 121.857 21.5333ZM151.422 15.6458V16.1872C150.744 16.2549 150.27 16.3902 150.066 16.5256C149.795 16.7286 149.659 17.27 149.659 18.082V20.6535C149.117 20.9919 148.371 21.2626 147.286 21.5333C146.133 21.8039 145.116 21.9393 144.234 21.9393C141.861 21.9393 139.962 21.1949 138.674 19.7061C137.453 18.4204 136.911 16.7286 136.911 14.8338C136.911 12.8036 137.521 11.1119 138.81 9.69075C140.166 8.26965 141.929 7.52527 144.031 7.52527C144.641 7.52527 145.252 7.66061 145.93 7.79595C146.608 7.99897 147.286 8.26965 147.896 8.47267C148.167 8.47267 148.371 8.33733 148.507 8.20198C148.574 8.06664 148.71 7.9313 148.846 7.59294H149.388V12.3299H148.846C148.439 11.2472 147.896 10.3675 147.083 9.62308C146.201 8.74335 145.184 8.20198 144.167 8.20198C142.81 8.20198 141.793 8.8787 141.183 10.1645C140.64 11.2472 140.369 12.736 140.369 14.7661C140.369 16.8639 140.708 18.4204 141.386 19.5708C142.064 20.7212 143.014 21.2626 144.302 21.2626C145.184 21.2626 145.726 21.1272 145.998 20.8565C146.269 20.6535 146.404 20.3152 146.404 19.7738V17.676C146.404 17.0669 146.201 16.6609 145.93 16.4579C145.658 16.2549 145.048 16.2549 144.302 16.2549V15.7135H151.355V15.6458H151.422ZM43.9417 34.7292L42.1108 27.9621H42.9924L44.0096 32.4284C44.1452 32.9021 44.213 33.3081 44.2808 33.8495C44.4842 33.1051 44.552 32.6991 44.552 32.6314L45.8405 28.0297H46.9254L47.8748 31.481C48.0782 32.3607 48.2817 33.1051 48.4173 33.9171C48.5529 33.4434 48.6207 33.0374 48.7563 32.4284L49.8413 28.0974H50.8585L48.9598 34.8645H48.146L46.722 29.6538C46.5864 29.1801 46.5186 28.9771 46.5186 28.8418C46.4508 29.1801 46.3829 29.3832 46.3151 29.6538L44.8233 34.8645H43.9417V34.7292ZM51.1297 32.293C51.1297 31.4133 51.3332 30.7366 51.8756 30.2629C52.3503 29.9245 52.825 29.7215 53.4353 29.7215C54.1134 29.7215 54.6559 29.9245 55.0628 30.3982C55.5374 30.8719 55.6731 31.481 55.6731 32.293C55.6731 32.9021 55.5374 33.4434 55.4018 33.7818C55.1984 34.1202 54.9272 34.3908 54.5203 34.6615C54.1812 34.8645 53.7744 34.9322 53.2997 34.9322C52.6216 34.9322 52.0791 34.7292 51.6044 34.2555C51.3332 33.7141 51.1297 33.0374 51.1297 32.293ZM51.9435 32.293C51.9435 32.9021 52.0791 33.4434 52.3503 33.7141C52.6216 34.0525 52.9606 34.1878 53.3675 34.1878C53.7744 34.1878 54.1134 33.9848 54.3847 33.7141C54.6559 33.3758 54.7915 32.9021 54.7915 32.293C54.7915 31.684 54.6559 31.2103 54.3847 30.9396C54.1134 30.6012 53.7744 30.4659 53.3675 30.4659C52.9606 30.4659 52.5538 30.6689 52.3503 30.9396C52.0791 31.1426 51.9435 31.6163 51.9435 32.293ZM56.419 32.293C56.419 31.4133 56.6224 30.7366 57.1649 30.2629C57.6396 29.9245 58.1143 29.7215 58.7246 29.7215C59.4027 29.7215 59.9452 29.9245 60.352 30.3982C60.8267 30.8719 60.9623 31.481 60.9623 32.293C60.9623 32.9021 60.8267 33.4434 60.6911 33.7818C60.4877 34.1202 60.2164 34.3908 59.8096 34.6615C59.4705 34.8645 59.0636 34.9322 58.589 34.9322C57.9108 34.9322 57.3684 34.7292 56.8937 34.2555C56.6224 33.7141 56.419 33.0374 56.419 32.293ZM57.2327 32.293C57.2327 32.9021 57.3684 33.4434 57.6396 33.7141C57.9108 34.0525 58.2499 34.1878 58.6568 34.1878C59.0636 34.1878 59.4027 33.9848 59.6739 33.7141C59.9452 33.3758 60.0808 32.9021 60.0808 32.293C60.0808 31.684 59.9452 31.2103 59.6739 30.9396C59.4027 30.6012 59.0636 30.4659 58.6568 30.4659C58.2499 30.4659 57.843 30.6012 57.6396 30.8719C57.4362 31.1426 57.2327 31.6163 57.2327 32.293ZM65.2344 34.7292V34.1202C64.8954 34.6615 64.4207 34.8645 63.8782 34.8645C63.4714 34.8645 63.1323 34.7292 62.7932 34.5262C62.4542 34.3232 62.2508 33.9848 61.9795 33.6465C61.7761 33.2404 61.7083 32.7667 61.7083 32.293C61.7083 31.7517 61.7761 31.3456 61.9117 30.9396C62.1151 30.5336 62.3186 30.1952 62.6576 30.0599C62.9967 29.8569 63.3357 29.7215 63.7426 29.7215C64.0138 29.7215 64.2851 29.7892 64.5563 29.9245C64.7598 30.0599 64.9632 30.1952 65.0988 30.4659V28.0297H65.9804V34.7969L65.2344 34.7292ZM62.5898 32.293C62.5898 32.9021 62.7254 33.3758 62.9967 33.7141C63.2679 34.0525 63.5392 34.1878 63.946 34.1878C64.2851 34.1878 64.6241 33.9848 64.8276 33.7141C65.0988 33.4434 65.2344 32.9697 65.2344 32.3607C65.2344 31.684 65.0988 31.1426 64.8276 30.8719C64.5563 30.5336 64.2851 30.3982 63.8782 30.3982C63.4714 30.3982 63.2001 30.6012 62.9967 30.8719C62.6576 31.1426 62.5898 31.6163 62.5898 32.293ZM69.6422 32.6314V31.7517H72.219V32.6314H69.6422ZM77.1014 34.7292L75.2705 27.8944H76.152L77.1692 32.3607C77.3048 32.8344 77.3726 33.2404 77.4405 33.7818C77.6439 33.0374 77.7117 32.6314 77.7117 32.5637L79.0001 27.9621H80.0851L81.0344 31.4133C81.2379 32.293 81.4413 33.0374 81.5769 33.8495C81.7126 33.3758 81.7804 32.9697 81.916 32.3607L83.001 28.0297H83.8825L81.9838 34.7969H81.1023L79.6782 29.5862C79.5426 29.1125 79.4748 28.9095 79.4748 28.7741C79.407 29.1125 79.3392 29.3155 79.2714 29.5862L77.7795 34.7969H76.9658V34.7292H77.1014ZM84.2894 32.293C84.2894 31.4133 84.4928 30.7366 85.0353 30.2629C85.51 29.9245 85.9847 29.7215 86.595 29.7215C87.2731 29.7215 87.8156 29.9245 88.2224 30.3982C88.6971 30.8719 88.8327 31.481 88.8327 32.293C88.8327 32.9021 88.6971 33.4434 88.5615 33.7818C88.3581 34.1202 88.0868 34.3908 87.6799 34.6615C87.3409 34.8645 86.934 34.9322 86.4593 34.9322C85.7812 34.9322 85.2387 34.7292 84.7641 34.2555C84.4928 33.7141 84.2894 33.0374 84.2894 32.293ZM85.1031 32.293C85.1031 32.9021 85.2387 33.4434 85.51 33.7141C85.7812 34.0525 86.1203 34.1878 86.5271 34.1878C86.934 34.1878 87.2731 33.9848 87.5443 33.7141C87.8156 33.3758 87.9512 32.9021 87.9512 32.293C87.9512 31.684 87.8156 31.2103 87.5443 30.9396C87.2731 30.6012 86.934 30.4659 86.5271 30.4659C86.1203 30.4659 85.7134 30.6689 85.51 30.9396C85.3065 31.1426 85.1031 31.6163 85.1031 32.293ZM89.8499 34.7292V29.7892H90.5958V30.5336C90.7993 30.1952 91.0027 29.9922 91.1383 29.8569C91.3417 29.7215 91.4774 29.6538 91.6808 29.6538C91.952 29.6538 92.2233 29.7892 92.5623 29.9245L92.2911 30.7366C92.0877 30.6012 91.8842 30.5336 91.6808 30.5336C91.4774 30.5336 91.3417 30.6012 91.1383 30.7366C90.9349 30.8719 90.9349 31.0073 90.7993 31.2103C90.6636 31.481 90.6636 31.8193 90.6636 32.1577V34.7292H89.8499ZM93.037 34.7292V27.8944H93.9186V31.8193L95.8851 29.8569H96.9701L95.0714 31.6163L97.1735 34.7292H96.1563L94.5289 32.1577L93.9864 32.6991V34.6615H93.037V34.7292ZM97.7838 28.8418V27.8944H98.6653V28.8418H97.7838ZM97.7838 34.7292V29.7892H98.6653V34.7292H97.7838ZM99.9538 34.7292V29.7892H100.7V30.4659C101.039 29.9245 101.581 29.6538 102.259 29.6538C102.531 29.6538 102.802 29.7215 103.141 29.8569C103.344 29.9922 103.616 30.0599 103.683 30.2629C103.819 30.4659 103.887 30.6689 103.955 30.8719C104.022 31.0749 104.022 31.3456 104.022 31.684V34.7292H103.141V31.7517C103.141 31.4133 103.073 31.1426 103.005 31.0073C102.937 30.8043 102.802 30.7366 102.666 30.6012C102.463 30.4659 102.327 30.3982 102.124 30.3982C101.785 30.3982 101.446 30.5336 101.242 30.7366C100.971 30.9396 100.835 31.4133 100.835 32.0223V34.7292H99.9538ZM105.04 35.0676L105.853 35.2029C105.921 35.4059 105.989 35.6766 106.125 35.7443C106.328 35.9473 106.667 35.9473 107.006 35.9473C107.413 35.9473 107.684 35.8796 107.888 35.7443C108.091 35.5413 108.227 35.3382 108.362 35.1352C108.43 34.9322 108.43 34.5939 108.43 34.0525C108.091 34.5262 107.549 34.6615 107.074 34.6615C106.396 34.6615 105.853 34.4585 105.514 33.9171C105.175 33.3758 104.972 32.8344 104.972 32.1577C104.972 31.684 105.107 31.278 105.243 30.8719C105.446 30.4659 105.65 30.1952 105.989 29.9922C106.328 29.7892 106.667 29.6538 107.142 29.6538C107.684 29.6538 108.227 29.8569 108.566 30.3306V29.7892H109.38V33.9848C109.38 34.7969 109.312 35.2706 109.176 35.6089C108.973 35.9473 108.769 36.1503 108.43 36.3533C108.091 36.5563 107.684 36.624 107.21 36.624C106.667 36.624 106.125 36.4887 105.786 36.218C105.243 36.0826 105.04 35.6766 105.04 35.0676ZM105.786 32.1577C105.786 32.7667 105.921 33.3081 106.192 33.5788C106.464 33.8495 106.735 34.0525 107.142 34.0525C107.549 34.0525 107.82 33.8495 108.091 33.5788C108.362 33.3081 108.498 32.8344 108.498 32.1577C108.498 31.5486 108.362 31.0749 108.091 30.8043C107.82 30.5336 107.549 30.3306 107.142 30.3306C106.735 30.3306 106.464 30.5336 106.192 30.8043C105.921 31.1426 105.786 31.6163 105.786 32.1577ZM113.313 34.7292V27.8944H114.669L116.296 32.6991C116.5 33.1728 116.567 33.5111 116.635 33.7141C116.703 33.5111 116.839 33.1051 116.974 32.6314L118.602 27.8944H119.822V34.6615H118.941V28.9771L116.974 34.7292H116.161L114.194 28.9771V34.7292H113.313ZM124.366 34.0525C124.095 34.3232 123.755 34.5262 123.484 34.5939C123.213 34.6615 122.874 34.7969 122.603 34.7969C122.06 34.7969 121.653 34.6615 121.382 34.3908C121.111 34.1202 120.907 33.7818 120.907 33.3758C120.907 33.1728 120.975 32.9021 121.111 32.6991C121.246 32.496 121.314 32.3607 121.586 32.2254C121.789 32.09 121.992 32.0223 122.196 31.9547C122.399 31.887 122.603 31.8193 122.942 31.8193C123.62 31.7517 124.162 31.6163 124.434 31.5486V31.3456C124.434 31.0073 124.366 30.8043 124.23 30.6012C124.027 30.3982 123.688 30.3306 123.281 30.3306C122.874 30.3306 122.603 30.3982 122.399 30.5336C122.196 30.6689 122.06 30.9396 121.992 31.278L121.179 31.1426C121.246 30.8043 121.382 30.5336 121.518 30.2629C121.721 30.0599 121.925 29.8569 122.264 29.7215C122.603 29.5862 122.942 29.5185 123.416 29.5185C123.823 29.5185 124.23 29.5862 124.434 29.7215C124.705 29.8569 124.908 29.9245 124.976 30.1275C125.112 30.3306 125.18 30.4659 125.247 30.6689C125.247 30.8719 125.315 31.0749 125.315 31.481V32.6314C125.315 33.4434 125.315 33.8495 125.383 34.1202C125.451 34.3232 125.519 34.5262 125.586 34.6615H124.705C124.434 34.5262 124.366 34.3232 124.366 34.0525ZM124.298 32.2254C124.027 32.3607 123.552 32.4284 122.942 32.5637C122.603 32.6314 122.399 32.6991 122.196 32.7667C121.992 32.8344 121.992 32.9697 121.857 33.0374C121.789 33.1728 121.721 33.2404 121.721 33.4434C121.721 33.6465 121.789 33.8495 121.925 33.9848C122.128 34.1878 122.331 34.1878 122.67 34.1878C123.01 34.1878 123.281 34.1202 123.552 33.9848C123.755 33.8495 124.027 33.6465 124.095 33.4434C124.23 33.2404 124.23 32.9697 124.23 32.5637L124.298 32.2254ZM128.231 33.9848L128.367 34.7292C128.163 34.7969 127.892 34.7969 127.756 34.7969C127.485 34.7969 127.214 34.7292 127.078 34.5939C126.875 34.4585 126.807 34.3908 126.739 34.1878C126.671 33.9848 126.604 33.6465 126.604 33.2404V30.3982H125.993V29.7892H126.604V28.5711L127.485 28.0297V29.7215H128.367V30.4659H127.485V33.3081C127.485 33.5111 127.485 33.7141 127.553 33.7818C127.621 33.8495 127.621 33.9171 127.756 33.9848C127.824 34.0525 127.96 34.0525 128.028 34.0525C127.96 33.9848 128.095 33.9848 128.231 33.9848ZM132.435 33.1051L133.317 33.2404C133.181 33.7818 132.91 34.1202 132.571 34.4585C132.164 34.7292 131.689 34.8645 131.147 34.8645C130.401 34.8645 129.858 34.6615 129.452 34.1878C129.045 33.7141 128.841 33.1051 128.841 32.293C128.841 31.4133 129.045 30.8043 129.452 30.3982C129.926 29.9245 130.401 29.7215 131.079 29.7215C131.757 29.7215 132.3 29.9245 132.707 30.3982C133.113 30.8719 133.317 31.481 133.317 32.293V32.496H129.655C129.723 33.0374 129.858 33.4434 130.13 33.7141C130.401 33.9848 130.74 34.1878 131.147 34.1878C131.418 34.1878 131.689 34.1202 131.961 33.9848C132.232 33.8495 132.3 33.4434 132.435 33.1051ZM129.723 31.7517H132.503C132.435 31.3456 132.3 31.0073 132.164 30.8719C131.893 30.5336 131.554 30.3306 131.147 30.3306C130.74 30.3306 130.469 30.4659 130.198 30.7366C129.858 31.0073 129.723 31.3456 129.723 31.7517ZM134.402 34.7292V29.7892H135.148V30.5336C135.351 30.1952 135.555 29.9922 135.69 29.8569C135.894 29.7215 136.029 29.6538 136.233 29.6538C136.504 29.6538 136.775 29.7892 137.114 29.9245L136.843 30.7366C136.64 30.6012 136.436 30.5336 136.233 30.5336C136.029 30.5336 135.894 30.6012 135.69 30.7366C135.487 30.8719 135.487 31.0073 135.351 31.2103C135.216 31.481 135.216 31.8193 135.216 32.1577V34.7292H134.402ZM137.521 28.8418V27.8944H138.403V28.8418H137.521ZM137.521 34.7292V29.7892H138.403V34.7292H137.521ZM142.878 34.0525C142.607 34.3232 142.268 34.5262 141.997 34.5939C141.725 34.6615 141.386 34.7969 141.115 34.7969C140.573 34.7969 140.166 34.6615 139.895 34.3908C139.623 34.1202 139.42 33.7818 139.42 33.3758C139.42 33.1728 139.488 32.9021 139.623 32.6991C139.759 32.496 139.827 32.3607 140.098 32.2254C140.301 32.09 140.505 32.0223 140.708 31.9547C140.912 31.887 141.115 31.8193 141.454 31.8193C142.132 31.7517 142.675 31.6163 142.946 31.5486V31.3456C142.946 31.0073 142.878 30.8043 142.743 30.6012C142.539 30.3982 142.2 30.3306 141.793 30.3306C141.386 30.3306 141.115 30.3982 140.912 30.5336C140.708 30.6689 140.573 30.9396 140.505 31.278L139.691 31.1426C139.759 30.8043 139.895 30.5336 140.03 30.2629C140.234 30.0599 140.437 29.8569 140.776 29.7215C141.115 29.5862 141.454 29.5185 141.929 29.5185C142.336 29.5185 142.743 29.5862 142.946 29.7215C143.217 29.8569 143.421 29.9245 143.489 30.1275C143.624 30.3306 143.692 30.4659 143.76 30.6689C143.76 30.8719 143.828 31.0749 143.828 31.481V32.6314C143.828 33.4434 143.828 33.8495 143.895 34.1202C143.963 34.3232 144.031 34.5262 144.099 34.6615H143.217C143.014 34.5262 142.946 34.3232 142.878 34.0525ZM142.81 32.2254C142.539 32.3607 142.064 32.4284 141.454 32.5637C141.115 32.6314 140.912 32.6991 140.708 32.7667C140.505 32.8344 140.505 32.9697 140.369 33.0374C140.301 33.1728 140.234 33.2404 140.234 33.4434C140.234 33.6465 140.301 33.8495 140.437 33.9848C140.64 34.1878 140.844 34.1878 141.183 34.1878C141.522 34.1878 141.793 34.1202 142.064 33.9848C142.268 33.8495 142.539 33.6465 142.607 33.4434C142.743 33.2404 142.743 32.9697 142.743 32.5637L142.81 32.2254ZM144.913 34.7292V27.8944H145.794V34.6615L144.913 34.7292ZM146.743 33.2404L147.625 33.1051C147.693 33.4434 147.828 33.6465 148.032 33.8495C148.235 34.0525 148.574 34.1202 148.913 34.1202C149.32 34.1202 149.592 34.0525 149.795 33.9171C149.998 33.7141 150.066 33.5788 150.066 33.3758C150.066 33.1728 149.998 33.0374 149.863 32.9021C149.727 32.8344 149.456 32.6991 148.981 32.6314C148.371 32.4284 147.964 32.3607 147.693 32.2254C147.489 32.09 147.286 31.9547 147.15 31.7517C147.015 31.5486 146.947 31.3456 146.947 31.0749C146.947 30.8719 147.015 30.6689 147.15 30.4659C147.286 30.2629 147.354 30.1275 147.557 29.9922C147.693 29.8569 147.828 29.7892 148.1 29.7892C148.371 29.7892 148.574 29.6538 148.846 29.6538C149.252 29.6538 149.592 29.7215 149.863 29.8569C150.134 29.9922 150.405 30.1275 150.473 30.3306C150.609 30.5336 150.677 30.8043 150.744 31.0749L149.931 31.2103C149.863 31.0073 149.727 30.7366 149.592 30.6689C149.388 30.4659 149.117 30.4659 148.846 30.4659C148.439 30.4659 148.168 30.5336 147.964 30.6689C147.761 30.8043 147.761 30.9396 147.761 31.1426C147.761 31.278 147.828 31.3456 147.896 31.4133C147.964 31.5486 148.1 31.6163 148.235 31.6163C148.303 31.684 148.574 31.7517 148.981 31.8193C149.524 32.0223 149.998 32.09 150.202 32.2254C150.405 32.3607 150.609 32.4284 150.744 32.6991C150.88 32.9021 150.948 33.1728 150.948 33.4434C150.948 33.7141 150.88 33.9848 150.744 34.2555C150.609 34.5262 150.337 34.7292 150.066 34.7969C149.795 34.8645 149.388 34.9999 149.049 34.9999C148.439 34.9999 147.896 34.8645 147.557 34.5939C147.083 34.1202 146.811 33.7141 146.743 33.2404ZM152.643 6.71321V2.51758H154.542C154.949 2.51758 155.22 2.58525 155.423 2.65292C155.627 2.72059 155.762 2.85594 155.898 3.05895C156.034 3.26196 156.101 3.46498 156.101 3.66799C156.101 3.93868 155.966 4.20937 155.83 4.41238C155.627 4.61539 155.288 4.75074 154.949 4.81841C155.152 4.88608 155.22 4.95375 155.288 5.02142C155.491 5.22444 155.627 5.35978 155.762 5.56279L156.508 6.71321H155.83L155.288 5.83348C155.084 5.63047 155.016 5.35978 154.881 5.29211L154.61 5.02142C154.542 4.95375 154.406 4.88608 154.406 4.88608H153.525V6.78088L152.643 6.71321ZM153.186 4.41238H154.406C154.61 4.41238 154.881 4.41238 155.016 4.34471C155.22 4.27704 155.22 4.20937 155.355 4.14169C155.423 4.00635 155.491 3.93868 155.491 3.73566C155.491 3.53265 155.423 3.39731 155.288 3.19429C155.084 3.05895 154.881 2.99128 154.61 2.99128H153.253L153.186 4.41238Z" fill="white"/>
<path d="M154.27 8.40538C152.236 8.40538 150.541 6.71359 150.541 4.61578C150.541 2.51796 152.168 0.826172 154.27 0.826172C156.305 0.826172 158 2.51796 158 4.61578C158 6.71359 156.373 8.40538 154.27 8.40538ZM154.27 1.36754C152.507 1.36754 151.151 2.78865 151.151 4.61578C151.151 6.37523 152.575 7.79634 154.27 7.79634C156.033 7.79634 157.39 6.37523 157.39 4.61578C157.458 2.85632 156.033 1.36754 154.27 1.36754ZM0 2.1796H37.2961V39.3989H0V2.1796Z" fill="#61676D"/>
<path d="M13.8334 9.75766C13.7655 9.82533 13.6977 9.893 13.6977 9.96068V10.0283L20.2076 13.6826C18.3089 13.2766 16.2746 12.5999 14.4437 13.1412V13.2766C14.4437 13.2766 14.9861 13.6826 15.1218 13.818C15.9355 14.63 15.5964 15.7804 14.4437 15.9834C13.7655 16.1188 13.3587 15.7804 13.1552 15.5097C13.0874 15.3744 13.0196 15.3067 13.0874 15.2391C10.9175 19.8407 19.1904 16.5248 21.0892 16.9308C16.6136 19.2317 18.3089 23.8333 14.7827 26.6079C19.0548 26.2695 17.902 22.2769 20.2754 20.1114C21.3604 19.164 22.5132 20.2467 23.7338 19.2993C25.5647 17.8782 24.4119 14.224 24.4797 12.2615C24.4797 11.3141 24.3441 9.82533 25.09 9.08095C26.3106 7.86286 27.1922 8.67492 27.26 10.096C27.3956 12.5999 25.1578 14.6977 25.9037 17.4045C27.3278 15.8481 29.4299 15.7128 30.5149 13.818C30.2437 16.6602 26.7175 17.7429 25.8359 20.3821C28.1415 17.9459 31.193 17.0662 33.363 14.4947C32.5492 16.7955 31.193 17.8106 29.0231 19.4347C27.9381 20.2467 27.6668 20.9911 27.599 21.2618C27.4634 21.5325 27.5312 21.6678 27.5312 21.6678C27.599 21.7355 27.7346 21.6002 27.8025 21.5325C29.3621 19.773 32.0746 18.4196 34.3801 18.4196C32.0746 19.0963 30.0402 20.9235 28.7518 22.9536C29.7012 22.0739 31.193 20.6528 32.6171 20.6528C34.1767 20.7204 35.1939 21.8709 34.5158 23.292C32.8205 26.8785 27.5312 24.4424 25.8359 22.3446C26.8531 24.9837 29.4977 26.7432 32.0746 27.6906C29.9046 27.6906 27.7346 26.9462 25.9716 25.7281H25.7681C26.1072 27.6229 27.6668 29.3824 29.1587 30.6682C29.2943 30.7358 29.3621 30.8035 29.4299 30.8712C26.7175 30.3975 24.8188 29.8561 24.0728 27.0816C23.4625 24.8484 23.7338 20.9911 20.6145 20.6528C22.5132 23.0213 21.2248 25.4574 21.5638 28.232C21.8351 30.7358 23.1913 32.4276 25.0222 33.9841C28.2771 32.563 31.3286 30.4651 33.363 27.5553C41.7037 15.5097 24.751 0.757353 13.8334 9.75766Z" fill="#0B82C2"/>
<path d="M21.5641 28.1639C21.2928 25.457 22.5134 23.0209 20.6147 20.5847C23.734 20.9907 23.395 24.7803 24.0731 27.0135C24.8868 29.788 26.7855 30.3294 29.4301 30.8031C29.2945 30.7354 29.2267 30.6677 29.1589 30.6001C27.5992 29.382 26.1752 27.5548 25.7683 25.66L26.0396 25.5924C27.8027 26.8105 29.9726 27.5548 32.1426 27.5548C29.5658 26.6751 26.8533 24.848 25.904 22.2765C27.5992 24.3066 32.8885 26.8105 34.5838 23.2239C35.2619 21.8028 34.2447 20.6524 32.6851 20.5847C31.3289 20.517 29.7692 21.9381 28.8198 22.8855C30.1083 20.8554 32.1426 19.0959 34.4482 18.3515C32.0748 18.4192 29.4301 19.7049 27.8705 21.4644C27.8027 21.5321 27.6671 21.6674 27.5992 21.5998C27.5314 21.5998 27.5314 21.3967 27.6671 21.1937C27.8027 20.923 28.0061 20.1786 29.0911 19.3666C31.261 17.7425 32.6851 16.7274 33.431 14.4266C31.261 16.9304 28.1417 17.8778 25.904 20.314C26.8533 17.6071 30.3117 16.5921 30.5151 13.7499C29.4301 15.7123 27.328 15.78 25.904 17.3364C25.158 14.6296 27.4636 12.5318 27.2602 10.0279C27.1924 8.60683 26.3108 7.86244 25.0902 9.01286C24.2765 9.89258 24.4121 11.3814 24.4121 12.3288C24.4121 14.2912 25.4971 17.8778 23.6662 19.3666C22.4456 20.314 21.2928 19.2312 20.2078 20.1786C17.8344 22.2765 19.055 26.2691 14.7829 26.6074C18.3091 23.7652 16.6816 19.2312 21.0216 16.8627C19.1228 16.4567 10.8499 19.705 13.0198 15.171C12.952 15.2386 13.0198 15.374 13.0877 15.4416C13.2911 15.7123 13.698 16.0507 14.3761 15.9153C15.461 15.6447 15.8679 14.5619 15.0542 13.7499C14.8507 13.6145 14.3761 13.2085 14.3761 13.2085V13.0731C16.2748 12.5318 18.3091 13.2085 20.14 13.6145L13.698 9.96026L8.34087 6.91504C5.22156 9.41888 2.17006 10.7046 1.76319 14.8326C1.49195 17.3364 1.831 19.908 2.57693 22.3441C4.74688 29.9233 11.3246 34.728 19.2585 35.0664C21.2928 35.0664 23.1237 34.6603 25.0224 33.916C23.1915 32.3595 21.8353 30.6677 21.5641 28.1639Z" fill="white"/>
</svg>
