<svg width="168" height="44" viewBox="0 0 168 44" fill="none" xmlns="http://www.w3.org/2000/svg">
<path d="M156.82 42.84C154.02 42.5616 151.239 42.1208 148.49 41.52C145.55 40.7 145.22 38.64 147.61 36.72C149.39 35.29 149.49 33.36 149.61 31.45C149.683 29.2957 149.637 27.139 149.47 24.99C149.47 24.52 148.98 23.76 148.63 23.7C148.352 23.7088 148.079 23.7809 147.833 23.9109C147.587 24.0409 147.374 24.2252 147.21 24.45C146.369 25.6042 145.63 26.8287 145 28.11C143.41 31.55 142 35.11 140.33 38.46C139.704 39.3766 138.954 40.2013 138.1 40.91C137.35 40.16 136.32 39.54 135.88 38.63C133.75 34.23 131.8 29.75 129.74 25.31C129.28 24.31 129.04 22.72 127.62 23.06C127.08 23.19 126.7 24.89 126.62 25.89C126.47 28.57 126.51 31.26 126.54 33.95C126.528 34.618 126.728 35.2726 127.11 35.8203C127.493 36.368 128.039 36.7809 128.67 37C129.13 37.1299 129.534 37.4082 129.82 37.7916C130.106 38.1749 130.257 38.6419 130.25 39.12C130.247 39.625 130.078 40.115 129.769 40.5144C129.46 40.9139 129.028 41.2005 128.54 41.33C124.614 42.8034 120.307 42.9161 116.31 41.65C115.759 41.5288 115.264 41.2285 114.902 40.7961C114.54 40.3636 114.332 39.8234 114.31 39.26C114.23 37.99 115.12 37.5 116.06 37.13C116.765 36.8899 117.379 36.4368 117.816 35.8332C118.253 35.2295 118.492 34.5052 118.5 33.76C119.01 25.93 119.82 18.11 119.03 10.25C118.991 9.5639 118.77 8.90069 118.388 8.3292C118.006 7.7577 117.479 7.29875 116.86 6.99999C116.06 6.60913 115.353 6.04965 114.79 5.35999C114.62 5.06132 114.518 4.72876 114.492 4.38613C114.466 4.04351 114.515 3.6993 114.638 3.37817C114.76 3.05705 114.952 2.76696 115.199 2.52869C115.447 2.29042 115.744 2.10988 116.07 1.99999C118.256 1.136 120.545 0.561141 122.88 0.289989C130.1 -0.330011 130.71 0.109989 134.16 6.48999C135.97 9.81999 137.75 13.16 139.64 16.49C139.828 16.8337 140.088 17.1329 140.402 17.3675C140.716 17.6021 141.077 17.7667 141.46 17.85C141.841 17.7648 142.199 17.5982 142.51 17.3618C142.82 17.1253 143.076 16.8245 143.26 16.48C145.2 12.86 147.13 9.23999 148.84 5.47999C150.55 1.71999 153.24 -0.0500112 157.3 0.229989C159.502 0.318961 161.698 0.519217 163.88 0.829989C165.28 1.07999 166.72 1.82999 166.88 3.48999C166.916 3.96181 166.856 4.43599 166.705 4.88436C166.554 5.33273 166.314 5.74613 166 6.09999C165.147 6.85583 164.458 7.77795 163.975 8.80974C163.492 9.84152 163.225 10.9612 163.19 12.1C162.614 19.1434 162.765 26.2274 163.64 33.24C163.688 33.9254 163.903 34.5885 164.268 35.171C164.632 35.7534 165.134 36.2373 165.73 36.58C166.221 36.7983 166.63 37.168 166.896 37.6351C167.162 38.1022 167.272 38.6422 167.21 39.1761C167.147 39.7101 166.915 40.2101 166.548 40.603C166.181 40.9959 165.698 41.2612 165.17 41.36C162.33 42 159.48 42.38 156.82 42.84Z" fill="#D1E8FF"/>
<path d="M70.89 20.8499C70.89 17.5799 70.89 14.3099 70.89 11.0499C70.89 8.93986 70.36 7.04986 68.16 6.14986C67.6683 6.01896 67.2354 5.7252 66.9321 5.31655C66.6287 4.90789 66.4729 4.40848 66.49 3.89986C66.485 3.30991 66.68 2.73567 67.0432 2.27076C67.4064 1.80586 67.9164 1.47772 68.49 1.33986C70.4576 0.863546 72.4673 0.582187 74.49 0.499857C79.89 0.349857 85.26 0.419857 90.62 0.309857C94.62 0.229857 98.41 0.679857 101.81 2.88986C103.22 3.77967 104.379 5.01624 105.174 6.48141C105.97 7.94657 106.377 9.59137 106.356 11.2586C106.335 12.9259 105.887 14.5599 105.054 16.0045C104.221 17.449 103.032 18.656 101.6 19.5099C101.086 19.8151 100.681 20.2731 100.44 20.8199C100.35 21.0499 100.92 21.7599 101.31 21.8999C106.38 23.6499 108.11 27.6699 108.6 32.5299C108.79 34.4099 109.42 35.7399 111.42 36.3999C111.872 36.5255 112.277 36.7797 112.587 37.1315C112.897 37.4832 113.098 37.9175 113.166 38.3815C113.234 38.8454 113.166 39.3191 112.969 39.7449C112.773 40.1707 112.457 40.5302 112.06 40.7799C110.756 41.7414 109.258 42.4068 107.67 42.7299C104.715 43.3378 101.655 43.2107 98.76 42.3599C97.6394 42.0271 96.6133 41.4342 95.7652 40.6296C94.9172 39.825 94.2712 38.8315 93.88 37.7299C92.88 35.2999 92.27 32.7299 91.48 30.2399C91.23 29.1669 90.8646 28.1241 90.39 27.1299C89.9229 26.2638 89.2323 25.5387 88.39 25.0299C86.26 23.8999 84.79 24.8299 84.83 27.1799C84.8024 29.286 84.9261 31.3914 85.2 33.4799C85.4614 34.5131 86.0381 35.4394 86.85 36.1299C87.85 37.0099 88.85 37.6999 88.65 39.2099C88.45 40.7199 87.29 41.2099 86.07 41.6699C85.195 42.0305 84.2652 42.2402 83.32 42.2899C79.18 42.2899 75.03 42.0799 70.89 41.8999C70.1958 41.8012 69.5212 41.5954 68.89 41.2899C66.35 40.2899 65.42 37.5999 68.25 35.9699C70.4 34.7299 70.79 32.4499 70.84 30.1799C70.94 27.0799 70.89 23.9999 70.89 20.8499ZM84.5 14.3599C84.5 15.1499 84.5 15.9399 84.5 16.7299C84.43 17.9599 84.99 18.3999 86.2 18.3999C89 18.3999 90.56 17.2199 90.9 14.3999C91.0966 12.9376 91.0696 11.454 90.82 9.99986C90.6473 9.03433 90.1013 8.17568 89.3 7.60986C88.28 7.09893 87.1183 6.94404 86 7.16986C85.48 7.28986 85.08 8.63986 85 9.48986C84.64 11.0899 84.62 12.7299 84.5 14.3599Z" fill="#D1E8FF"/>
<path d="M45.08 42.6499C35.6 42.1299 28.32 37.9999 24.37 29.1499C20.18 19.7399 24.24 8.7199 33.7 3.2499C36.782 1.34125 40.293 0.235098 43.9124 0.0324661C47.5318 -0.170166 51.1443 0.537177 54.42 2.0899C55.68 2.54648 57.0273 2.71062 58.3601 2.5699C59.1217 2.43962 59.9047 2.53272 60.6146 2.83796C61.3244 3.14319 61.9307 3.64749 62.3601 4.2899C63.4117 5.77461 64.1492 7.45834 64.5275 9.238C64.9058 11.0177 64.9169 12.8558 64.56 14.6399C64.4056 15.6686 63.9297 16.6221 63.2004 17.3639C62.4712 18.1057 61.526 18.5979 60.5 18.7699C58.13 19.2399 56.68 18.5099 55.25 16.1999C54.64 15.1999 54.12 14.1999 53.5 13.1999C52.4044 11.505 50.8337 10.1705 48.984 9.36306C47.1344 8.55562 45.0879 8.31105 43.1 8.6599C42.1706 8.86277 41.3053 9.29074 40.5799 9.90623C39.8546 10.5217 39.2915 11.3059 38.94 12.1899C36.49 17.4099 38.75 28.8399 47.32 31.3299C49.389 32.0094 51.5996 32.1362 53.7326 31.6976C55.8657 31.2591 57.847 30.2705 59.48 28.8299C61.27 27.2999 62.96 27.8299 63.62 30.0699C64.38 32.6599 61.6701 38.7899 58.4701 39.2699C56.8832 39.6218 55.3452 40.1658 53.89 40.8899C51.1057 42.0763 48.1065 42.6755 45.08 42.6499Z" fill="#D1E8FF"/>
<path d="M17.35 23.5598C17.35 26.5598 17.35 29.4598 17.35 32.4098C17.2927 33.1795 17.4492 33.9501 17.8021 34.6365C18.155 35.3229 18.6907 35.8985 19.35 36.2998C21.68 37.7698 21.19 40.4098 18.6 41.2998C17.3262 41.8239 15.9748 42.1347 14.6 42.2198C11.03 42.2198 7.46 42.0698 3.91 41.8398C2.97341 41.7166 2.07915 41.374 1.3 40.8398C0.957592 40.6586 0.66804 40.3916 0.459626 40.065C0.251213 39.7385 0.131063 39.3634 0.110913 38.9765C0.0907623 38.5896 0.1713 38.2041 0.344659 37.8577C0.518018 37.5112 0.778272 37.2156 1.1 36.9998C3.22 35.5398 3.85 33.5098 3.86 31.1398C3.86 28.5598 3.86 25.9798 3.77 23.3998C3.82725 22.7358 3.66174 22.0716 3.29958 21.512C2.93743 20.9525 2.39925 20.5295 1.77 20.3098C-0.649998 19.4498 -0.609998 16.5498 1.77 15.5298C4.18123 14.5266 6.66501 13.7076 9.2 13.0798C11.0763 12.5913 12.9893 12.2568 14.92 12.0798C16.75 11.9098 17.26 12.4498 17.28 14.3398C17.28 17.3398 17.28 20.4498 17.28 23.4998L17.35 23.5598Z" fill="#D1E8FF"/>
<path d="M5.49998 10.2899C4.42921 10.0738 3.38603 9.73842 2.38998 9.28995C1.90497 9.06916 1.48367 8.72931 1.16527 8.302C0.846864 7.87468 0.641698 7.37378 0.56885 6.84589C0.496003 6.31799 0.55784 5.78025 0.748611 5.28267C0.939382 4.78509 1.25289 4.34384 1.65998 3.99995C3.88998 1.71995 6.83998 1.09995 9.83998 0.819947C11.2497 0.717005 12.6668 0.835098 14.04 1.16995C14.7621 1.23513 15.4428 1.5356 15.9775 2.02519C16.5123 2.51478 16.8715 3.1664 17 3.87995C17.1214 4.61138 17.0238 5.36237 16.7195 6.0385C16.4153 6.71463 15.9179 7.28571 15.29 7.67995C12.53 9.65995 9.33998 9.99995 5.49998 10.2899Z" fill="#D1E8FF"/>
</svg>

