<svg width="32" height="23" viewBox="0 0 32 23" fill="none" xmlns="http://www.w3.org/2000/svg">
<g clipPath="url(#clip0_255_43920)">
<path d="M0 13.5042V9.50266C4.56011 9.50266 9.11995 9.50461 13.6795 9.5085C13.9296 9.5085 14.0088 9.46098 14.0071 9.19254C13.9955 6.52483 13.9996 3.86212 14.0013 1.19692C14.0013 1.0727 14.0121 0.946818 14.0188 0.823437H17.982C17.9879 0.947652 17.9995 1.07353 17.9995 1.19692C17.9995 3.86462 18.0045 6.52733 17.9929 9.19254C17.9929 9.46098 18.0696 9.50933 18.3205 9.5085C22.8778 9.50016 27.4377 9.49821 32 9.50266V13.5042C27.4427 13.5042 22.8828 13.5023 18.3205 13.4984C18.0704 13.4984 17.992 13.5451 17.9929 13.8143C18.0045 16.4821 18.0004 19.1448 17.9995 21.81C17.9995 21.9342 17.987 22.0601 17.9812 22.1826H14.0196C14.013 22.0584 14.0013 21.9325 14.0013 21.81C14.0013 19.1548 13.9946 16.5004 14.008 13.846C14.008 13.5501 13.9204 13.4976 13.6478 13.4984C9.09828 13.5067 4.549 13.5087 0 13.5042Z" fill="#D70027"/>
<path d="M19.5151 22.1843H17.9812C17.987 22.0601 17.9995 21.9342 17.9995 21.8116C17.9995 19.1439 18.0045 16.4812 17.9929 13.816C17.9929 13.5467 18.0704 13.4992 18.3205 13.5001C22.8778 13.5084 27.4377 13.5103 32 13.5059V15.1932C31.8758 15.1982 31.7499 15.2082 31.6274 15.2082H24.7488L24.7272 15.2774L32 19.3173V20.1927C29.0905 18.5776 26.1811 16.962 23.2716 15.3458C23.1009 15.2482 22.9071 15.1983 22.7105 15.2016C21.7527 15.2091 20.7931 15.2016 19.8361 15.2066C19.7527 15.2066 19.6585 15.1765 19.5593 15.2516C19.6568 15.3091 19.7352 15.3583 19.8161 15.4025C22.7244 17.0198 25.6336 18.6373 28.5436 20.2552C29.6874 20.8921 30.827 21.5374 31.9683 22.1793H28.6037C28.5524 22.1289 28.4966 22.0834 28.4369 22.0434C25.5297 20.4261 22.6219 18.8091 19.7135 17.1923C19.5568 17.109 19.4793 17.0848 19.4801 17.3132C19.4851 18.8855 19.4801 20.4578 19.4851 22.0301C19.4902 22.0823 19.5002 22.134 19.5151 22.1843Z" fill="#EEEEEE"/>
<path d="M0.0333464 0.830106H3.39716C3.4491 0.879186 3.50485 0.924067 3.56389 0.964325C6.47058 2.58107 9.377 4.19781 12.2831 5.81455C12.4957 5.93293 12.5182 5.86207 12.5182 5.66366C12.5132 4.12306 12.5182 2.57912 12.5141 1.04186C12.509 0.96956 12.4989 0.897697 12.484 0.826771H14.0171C14.0105 0.950986 13.9996 1.07687 13.9996 1.20025C13.9996 3.86796 13.9938 6.53067 14.0055 9.19587C14.0055 9.46431 13.9288 9.51266 13.6778 9.51183C9.11662 9.50238 4.55734 9.49988 0 9.50433V7.8195C0.124215 7.81283 0.250098 7.80033 0.372646 7.80033C2.55961 7.80033 4.7463 7.80033 6.93271 7.80033H7.25784L7.27117 7.72863L0 3.69206V2.81755C0.0558552 2.84506 0.112544 2.8709 0.166732 2.90091C3.02229 4.48598 5.87702 6.07271 8.73091 7.66111C8.90154 7.75862 9.09548 7.80789 9.29196 7.80366C10.2607 7.79699 11.2294 7.80366 12.1981 7.79783C12.269 7.79783 12.359 7.84451 12.4307 7.7403L12.2114 7.61776C9.44814 6.0816 6.68372 4.54545 3.9182 3.00929C2.62352 2.28651 1.33385 1.55622 0.0333464 0.830106Z" fill="#EEEEEE"/>
<path d="M14.0196 22.1826L12.4857 22.1826C12.5006 22.091 12.5106 21.9986 12.5157 21.9058C12.5157 20.0546 12.5157 18.203 12.5157 16.3512C12.5157 16.2845 12.5432 16.2069 12.4632 16.1378C12.414 16.1628 12.359 16.1878 12.3065 16.2211C8.82623 18.1508 5.34876 20.0823 1.87407 22.0159C1.79558 22.0666 1.7204 22.1223 1.64898 22.1826C1.14045 22.1709 0.627745 22.266 0.124215 22.1301C0.207581 22.0734 0.290947 22.0125 0.381816 21.9634C4.30613 19.7831 8.23044 17.603 12.1547 15.4233C12.2465 15.3716 12.3623 15.3399 12.4299 15.2116C11.3086 15.2116 10.2165 15.2116 9.12523 15.2116C9.00078 15.2208 8.88106 15.2631 8.77843 15.3341L6.29829 16.7046L0 20.1918V18.3169C0.0492609 18.3063 0.0973066 18.2907 0.143389 18.2703C1.90519 17.2943 3.6656 16.3167 5.42462 15.3374C5.47047 15.3116 5.553 15.3033 5.51799 15.2066C5.08198 15.2066 4.64515 15.2066 4.20914 15.2066L0 15.1915V13.5042C4.54955 13.5042 9.09883 13.5023 13.6478 13.4984C13.9204 13.4984 14.0096 13.5501 14.008 13.846C13.9946 16.5004 14.0013 19.1548 14.0013 21.81C14.0055 21.9342 14.013 22.0584 14.0196 22.1826Z" fill="#EEEEEE"/>
<path d="M30.351 0.829272L31.6465 0.816767C31.6873 0.811719 31.7287 0.81495 31.7683 0.826265C31.8078 0.837581 31.8447 0.85675 31.8766 0.882626C31.7549 0.959323 31.6357 1.04186 31.5106 1.11188C27.6391 3.26328 23.7676 5.41579 19.8961 7.56941C19.8027 7.62193 19.6844 7.6461 19.626 7.76031C19.7252 7.83367 19.8319 7.79783 19.9311 7.79866C20.7323 7.79866 21.5351 7.78115 22.3362 7.80783C22.7913 7.82143 23.2407 7.70394 23.6309 7.46937C26.4137 5.90209 29.2089 4.36399 32 2.81755V4.69161C31.9415 4.70836 31.8844 4.72954 31.8291 4.75497C30.0834 5.72368 28.3383 6.69379 26.5937 7.66528C26.5454 7.69279 26.4653 7.69862 26.4787 7.802C26.9138 7.802 27.349 7.802 27.7842 7.802C29.1897 7.80644 30.5953 7.81144 32.0008 7.817V9.50433C27.4435 9.50433 22.8837 9.50627 18.3213 9.51016C18.0712 9.51016 17.9929 9.46264 17.9937 9.19421C18.0054 6.5265 18.0012 3.86379 18.0004 1.19858C18.0004 1.07437 17.9887 0.948485 17.9829 0.825104H19.516C19.5006 0.916985 19.4906 1.00968 19.4859 1.10271C19.4859 2.95455 19.4859 4.8061 19.4859 6.65738C19.4859 6.72407 19.4576 6.80161 19.5385 6.8708C19.5877 6.84662 19.6427 6.82078 19.696 6.78743C23.1735 4.85835 26.6507 2.92759 30.1276 0.99517C30.2056 0.94482 30.2803 0.889401 30.351 0.829272Z" fill="#EEEDEE"/>
<path d="M0.0333464 0.830106C1.33385 1.55622 2.62352 2.28651 3.9182 3.00929C6.68317 4.54878 9.44758 6.08494 12.2114 7.61776L12.4307 7.7403C12.359 7.84451 12.269 7.79783 12.1981 7.79783C11.2294 7.80199 10.2607 7.79783 9.29196 7.80366C9.09548 7.80789 8.90154 7.75862 8.73091 7.66111C5.87813 6.07049 3.0234 4.48375 0.166732 2.90091C0.112544 2.8709 0.0558552 2.84506 0 2.81755V0.816767C0.0115633 0.82 0.0227436 0.824472 0.0333464 0.830106Z" fill="#D7032A"/>
<path d="M31.9683 22.1793C30.827 21.5374 29.6874 20.8921 28.5436 20.2552C25.6358 18.6346 22.7267 17.0175 19.8161 15.4058C19.7327 15.3616 19.6568 15.3124 19.5593 15.2549C19.6585 15.1799 19.7519 15.2107 19.8361 15.2099C20.7948 15.2099 21.7535 15.2099 22.7105 15.2049C22.9071 15.2017 23.1009 15.2515 23.2716 15.3491C26.1805 16.9681 29.09 18.5837 32 20.196V22.1968C31.9887 22.192 31.9781 22.1867 31.9683 22.1793Z" fill="#D7032A"/>
<path d="M32 2.81755C29.2089 4.36482 26.4145 5.90209 23.6309 7.46603C23.2407 7.70061 22.7913 7.81809 22.3362 7.8045C21.5351 7.77782 20.7323 7.79866 19.9311 7.79533C19.8319 7.79533 19.7252 7.83034 19.626 7.75698C19.6844 7.64277 19.8027 7.61859 19.8961 7.56607C23.7665 5.41412 27.6386 3.263 31.5123 1.11272C31.6374 1.04269 31.7566 0.960157 31.8783 0.88346L32.0017 0.879292L32 2.81755Z" fill="#D70329"/>
<path d="M0 20.1918L6.29829 16.7046L8.77843 15.3274C8.88106 15.2565 9.00078 15.2141 9.12523 15.2049C10.2165 15.2049 11.3086 15.2049 12.4299 15.2049C12.3623 15.3366 12.2465 15.365 12.1547 15.4166C8.23044 17.5992 4.30613 19.78 0.381816 21.9592C0.292614 22.0092 0.210082 22.0701 0.124215 22.1259H0V20.1918Z" fill="#D70329"/>
<path d="M0 3.69206L7.27117 7.7253L7.25783 7.79699H6.93271C4.7463 7.79699 2.55961 7.79699 0.372646 7.79699C0.24843 7.79699 0.122548 7.8095 0 7.81617V3.69206Z" fill="#0454B4"/>
<path d="M32 19.3173L24.7272 15.2774L24.7488 15.2082H31.6274C31.7516 15.2082 31.8775 15.1982 32 15.1932V19.3173Z" fill="#0454B4"/>
<path d="M32 7.8195C30.5945 7.8145 29.1889 7.8095 27.7833 7.8045C27.3482 7.8045 26.913 7.8045 26.4778 7.8045C26.4645 7.70112 26.5445 7.69529 26.5929 7.66778C28.3375 6.69629 30.0829 5.72619 31.8291 4.75747C31.8844 4.73204 31.9415 4.71086 32 4.69412V7.8195Z" fill="#0555B4"/>
<path d="M0 15.1915L4.20914 15.2066C4.64515 15.2066 5.08198 15.2066 5.51799 15.2066C5.553 15.3033 5.47047 15.3116 5.42462 15.3374C3.6656 16.3167 1.90519 17.2943 0.143389 18.2703C0.0973066 18.2907 0.0492609 18.3063 0 18.3169V15.1915Z" fill="#0555B4"/>
<path d="M30.351 0.829272C30.2803 0.889401 30.2056 0.94482 30.1276 0.99517C26.6512 2.92759 23.1738 4.86001 19.6952 6.79077C19.6418 6.81995 19.5868 6.84579 19.5376 6.87413C19.4543 6.80494 19.4851 6.72741 19.4851 6.66072C19.4851 4.80944 19.4851 2.95788 19.4851 1.10605C19.4898 1.01301 19.4998 0.920319 19.5151 0.828439L30.351 0.829272Z" fill="#0253B4"/>
<path d="M12.4857 0.82427C12.5006 0.895196 12.5106 0.967059 12.5157 1.03935C12.5157 2.57996 12.5157 4.12389 12.5199 5.66116C12.5199 5.85957 12.4974 5.93043 12.2848 5.81205C9.38033 4.19253 6.47392 2.57579 3.56556 0.961824C3.50652 0.921566 3.45077 0.876685 3.39883 0.827605L12.4857 0.82427Z" fill="#0353B4"/>
<path d="M1.64898 22.1793C1.7204 22.119 1.79558 22.0633 1.87407 22.0125C5.34876 20.0818 8.82623 18.1508 12.3065 16.2194C12.359 16.1894 12.414 16.1644 12.4632 16.1361C12.5466 16.2053 12.5157 16.2828 12.5157 16.3495C12.5157 18.2008 12.5157 20.0523 12.5157 21.9042C12.5106 21.9969 12.5006 22.0893 12.4857 22.1809L1.64898 22.1793Z" fill="#0253B4"/>
<path d="M19.5151 22.1843C19.5006 22.1345 19.4908 22.0834 19.4859 22.0317C19.4859 20.4594 19.4859 18.8872 19.4809 17.3149C19.4809 17.0865 19.5576 17.1065 19.7144 17.194C22.6216 18.8124 25.5294 20.4294 28.4378 22.0451C28.4974 22.0851 28.5533 22.1306 28.6045 22.1809L19.5151 22.1843Z" fill="#0354B4"/>
</g>
<defs>
<clipPath id="clip0_255_43920">
<rect width="32" height="21.3842" fill="white" transform="translate(0 0.816406)"/>
</clipPath>
</defs>
</svg>
