<svg width="32" height="23" viewBox="0 0 32 23" fill="none" xmlns="http://www.w3.org/2000/svg">
<g clipPath="url(#clip0_255_43918)">
<path d="M0 22.1923V0.816406C0.103374 0.821408 0.206747 0.831412 0.310955 0.831412C10.77 0.831412 21.2294 0.831412 31.689 0.831412C31.7924 0.831412 31.8966 0.821408 32 0.816406V22.1923C31.8966 22.1864 31.7924 22.1773 31.689 22.1773H0.310955C0.206747 22.1773 0.103374 22.1864 0 22.1923ZM10.0873 9.68737C10.129 9.81492 10.2132 9.84243 10.2773 9.88912C11.2944 10.6302 12.3065 11.3814 13.3377 12.1041C13.6178 12.3001 13.7279 12.4651 13.5753 12.8044C13.4144 13.1629 13.3252 13.5547 13.2002 13.9282C12.9067 14.8352 12.6166 15.7422 12.3148 16.6684C12.4757 16.6434 12.5591 16.5467 12.6558 16.4767C13.7012 15.7197 14.7466 14.9636 15.7853 14.1966C15.9471 14.0766 16.0529 14.0799 16.2147 14.1966C17.2442 14.9569 18.2821 15.7056 19.3184 16.4584C19.4209 16.5334 19.5276 16.6042 19.6885 16.7168C19.6443 16.5642 19.6243 16.4859 19.5993 16.4083C19.2008 15.182 18.8132 13.9524 18.3939 12.7336C18.2955 12.4476 18.3622 12.3167 18.5914 12.15C19.636 11.4097 20.6672 10.6494 21.701 9.89912C21.771 9.84743 21.8677 9.81576 21.9027 9.68404H21.5918C20.3013 9.68404 19.0074 9.67653 17.7194 9.69071C17.4693 9.69071 17.3801 9.60734 17.3101 9.38559C16.9249 8.16678 16.5256 6.95214 16.1288 5.73666C16.0955 5.63579 16.0863 5.51991 15.9737 5.42737C15.9312 5.54909 15.8954 5.64496 15.8637 5.7425C15.4685 6.95797 15.0676 8.17261 14.6832 9.39226C14.6115 9.61818 14.509 9.69237 14.2664 9.68987C12.8875 9.68487 11.5045 9.69154 10.0873 9.69154V9.68737Z" fill="#D70127"/>
<path d="M10.0873 9.69154C11.4995 9.69154 12.8842 9.68487 14.2681 9.69738C14.5082 9.69738 14.6107 9.62568 14.6849 9.39976C15.0692 8.18012 15.4702 6.96548 15.8654 5.75C15.897 5.65246 15.9329 5.55659 15.9754 5.43488C16.088 5.52741 16.0971 5.64329 16.1305 5.74416C16.5273 6.95964 16.9266 8.17428 17.3118 9.39309C17.3818 9.61484 17.4785 9.70071 17.7211 9.69821C19.0116 9.68404 20.3054 9.69154 21.5934 9.69154H21.9052C21.871 9.82659 21.7735 9.85827 21.7035 9.90662C20.6697 10.6569 19.6385 11.4197 18.5939 12.1575C18.3647 12.3242 18.298 12.4518 18.3964 12.7411C18.8132 13.9599 19.2033 15.1895 19.6018 16.4158C19.6268 16.4934 19.6468 16.5717 19.691 16.7243C19.5301 16.6117 19.4234 16.5409 19.3209 16.4659C18.2846 15.7156 17.2467 14.9653 16.2172 14.2041C16.0554 14.0849 15.9496 14.0816 15.7878 14.2041C14.7491 14.9711 13.7037 15.7272 12.6583 16.4842C12.5616 16.5542 12.4782 16.6509 12.3173 16.6759C12.6166 15.7497 12.9092 14.8419 13.2027 13.9357C13.3244 13.5597 13.4169 13.1704 13.5778 12.8119C13.7304 12.4726 13.6203 12.3117 13.3402 12.1117C12.309 11.3889 11.2969 10.6377 10.2798 9.89662C10.2165 9.8466 10.1323 9.81992 10.0873 9.69154Z" fill="#FED844"/>
</g>
<defs>
<clipPath id="clip0_255_43918">
<rect width="32" height="21.3759" fill="white" transform="translate(0 0.816406)"/>
</clipPath>
</defs>
</svg>
